<svg id="Ebene_1" data-name="Ebene 1" xmlns="http://www.w3.org/2000/svg" viewBox="0 0 492.67 512"><defs><style>.cls-1{fill:#efefef;}</style></defs><title>72Percent</title><path class="cls-1" d="M152.18,325.53l-6.44-4.93L227.85,196H147.06v-7.77h95.2Z" transform="translate(-18.92)"/><path class="cls-1" d="M307.49,255.56c-1.14,1.39-2.84,3.44-5.12,6.16s-5.18,6.1-8.72,10.14l-38.87,44h64.85v7.77H237.71l66.37-76.8q8-11.37,8-23.7,0-12-9.48-20.29a32.69,32.69,0,0,0-22-8.16q-15.36,0-24.09,9.87a32.64,32.64,0,0,0-7.39,14.6h-8.54q1.33-9.85,9.86-19.53,11.39-12.52,30.16-12.52,16.11,0,27.68,10.05,11.56,9.85,11.57,26Q319.82,239.63,307.49,255.56Z" transform="translate(-18.92)"/><path class="cls-1" d="M375.71,282.74a10.06,10.06,0,0,1-7.15,2.9,10.34,10.34,0,0,1-10-9.89,10,10,0,0,1,2.9-7.07,10.05,10.05,0,0,1,17.12,7.07A9.19,9.19,0,0,1,375.71,282.74Zm-12.38,39h-3.21l31.19-57.4h3.22Zm10-50.72a6.48,6.48,0,0,0-4.74-2,6.21,6.21,0,0,0-4.66,2,6.48,6.48,0,0,0-2,4.74,6.12,6.12,0,0,0,2,4.58,6.39,6.39,0,0,0,4.66,2,7.37,7.37,0,0,0,4.74-1.93,6.39,6.39,0,0,0,2-4.66A6.48,6.48,0,0,0,373.3,271Zm18.49,48.47a10.06,10.06,0,0,1-7.15,2.9,10.32,10.32,0,0,1-10-9.89,10,10,0,0,1,2.89-7.08,10.06,10.06,0,0,1,17.13,7.08A9.19,9.19,0,0,1,391.79,319.48Zm-2.41-11.73a6.48,6.48,0,0,0-4.74-2,6.21,6.21,0,0,0-4.66,2,6.45,6.45,0,0,0-2,4.74,6.1,6.1,0,0,0,2,4.58,6.37,6.37,0,0,0,4.66,2,6.69,6.69,0,0,0,4.66-1.93,6.41,6.41,0,0,0,.08-9.4Z" transform="translate(-18.92)"/><path class="cls-1" d="M255.59,0,255,0V5.21l.63,0C394.11,5.19,506.4,117.48,506.4,256S394.11,506.8,255.59,506.8c-104.5,0-194-63.93-231.73-154.8l-4.94,1.64C57.31,446.58,148.79,512,255.59,512c141.39,0,256-114.62,256-256S397,0,255.59,0Z" transform="translate(-18.92)"/></svg>