<svg id="Ebene_4" data-name="Ebene 4" xmlns="http://www.w3.org/2000/svg" viewBox="0 0 512 512"><defs><style>.cls-1{font-size:189.63px;}.cls-1,.cls-3,.cls-4{fill:#efefef;}.cls-1,.cls-3{font-family:GeosansLight;}.cls-2{letter-spacing:-0.07em;}.cls-3{font-size:80.39px;}</style></defs><title>78Percent</title><text class="cls-1" transform="translate(144.24 323.63)"><tspan class="cls-2">7</tspan><tspan x="90.08" y="0">8</tspan></text><text class="cls-3" transform="translate(345.69 321.73)">%</text><path class="cls-4" d="M256,0c-.34,0-.67,0-1,0V5.22c.34,0,.67,0,1,0C394.52,5.19,506.81,117.48,506.81,256S394.52,506.8,256,506.8,5.2,394.52,5.2,256a250,250,0,0,1,13-79.87l-4.85-1.88A255,255,0,0,0,0,256C0,397.38,114.62,512,256,512S512,397.38,512,256,397.39,0,256,0Z"/></svg>