<svg id="Ebene_4" data-name="Ebene 4" xmlns="http://www.w3.org/2000/svg" viewBox="0 0 512 512"><defs><style>.cls-1{fill:#efefef;}</style></defs><title>78Percent</title><path class="cls-1" d="M155.24,325.53l-6.45-4.93L230.9,196H150.12v-7.77h95.19Z"/><path class="cls-1" d="M314.72,315.29q-11.19,10.81-28.26,10.81-17.25,0-28.44-10.62-11.19-10.82-11.19-27.88a37,37,0,0,1,6.64-21.8q6.63-9.3,18.58-13.85-9.48-2.83-15.17-12.13a35.47,35.47,0,0,1-5.5-19q0-15.36,9.67-25,9.68-9.85,25-9.86,15.56,0,25.22,9.67T321,220.85a34.69,34.69,0,0,1-5.68,19.35A28.14,28.14,0,0,1,299.74,252a42.06,42.06,0,0,1,16.68,10.81q9.3,9.87,9.29,24.84Q325.71,304.49,314.72,315.29Zm-6.07-49.68a38.75,38.75,0,0,0-10.34-7.49,27.24,27.24,0,0,0-12.23-2.75,26.2,26.2,0,0,0-11.94,2.75,41.19,41.19,0,0,0-10.24,7.3q-9.49,9.48-9.49,22.18a29.63,29.63,0,0,0,8.92,21.81q9.09,9.1,22.75,9.1,13.85,0,22.76-8.72,9.29-8.71,9.29-22.19A29.36,29.36,0,0,0,308.65,265.61Zm-3-64.29q-7.78-7.77-19.54-7.77a26.26,26.26,0,0,0-19.34,7.77Q259,209.11,259,220.85A26,26,0,0,0,266.74,240a33.66,33.66,0,0,0,8.63,6.25,23.13,23.13,0,0,0,10.71,2.47A25.3,25.3,0,0,0,297,246.45a30.48,30.48,0,0,0,8.63-6.06q7.77-7.78,7.77-19.54T305.62,201.32Z"/><path class="cls-1" d="M366.27,282.75a10.13,10.13,0,0,1-7.16,2.89,10.32,10.32,0,0,1-10-9.89,10,10,0,0,1,2.9-7.07,10,10,0,0,1,17.12,7.07A9.22,9.22,0,0,1,366.27,282.75Zm-12.38,39h-3.22l31.19-57.39h3.22Zm10-50.72a6.48,6.48,0,0,0-4.74-2,6.21,6.21,0,0,0-4.66,2,6.48,6.48,0,0,0-2,4.74,6.12,6.12,0,0,0,2,4.58,6.39,6.39,0,0,0,4.66,2,7.37,7.37,0,0,0,4.74-1.93,6.39,6.39,0,0,0,2-4.66A6.48,6.48,0,0,0,363.85,271Zm18.49,48.47a10.06,10.06,0,0,1-7.15,2.9,10.34,10.34,0,0,1-10-9.89,10,10,0,0,1,2.89-7.07,10.06,10.06,0,0,1,17.13,7.07A9.19,9.19,0,0,1,382.34,319.48Zm-2.41-11.73a6.48,6.48,0,0,0-4.74-2,6.21,6.21,0,0,0-4.66,2,6.48,6.48,0,0,0-2,4.74,6.12,6.12,0,0,0,2,4.58,6.39,6.39,0,0,0,4.66,2,6.69,6.69,0,0,0,4.66-1.93,6.41,6.41,0,0,0,.08-9.4Z"/><path class="cls-1" d="M256,0c-.34,0-.67,0-1,0V5.22c.34,0,.67,0,1,0C394.52,5.19,506.81,117.48,506.81,256S394.52,506.8,256,506.8,5.2,394.52,5.2,256a250,250,0,0,1,13-79.87l-4.85-1.88A255,255,0,0,0,0,256C0,397.38,114.62,512,256,512S512,397.38,512,256,397.39,0,256,0Z"/></svg>