<svg id="Ebene_2" data-name="Ebene 2" xmlns="http://www.w3.org/2000/svg" viewBox="0 0 512 511.99"><defs><style>.cls-1{fill:#efefef;}</style></defs><title>81Percent</title><path class="cls-1" d="M238.4,315.28q-11.19,10.82-28.25,10.81-17.27,0-28.45-10.62-11.19-10.82-11.18-27.87a37.11,37.11,0,0,1,6.63-21.81,39.43,39.43,0,0,1,18.59-13.85q-9.5-2.83-15.17-12.13a35.47,35.47,0,0,1-5.5-19q0-15.36,9.67-25,9.67-9.85,25-9.86,15.54,0,25.22,9.68t9.67,25.22A34.69,34.69,0,0,1,239,240.19a28,28,0,0,1-15.55,11.75,42.21,42.21,0,0,1,16.69,10.81q9.28,9.87,9.29,24.85Q249.4,304.48,238.4,315.28Zm-6.07-49.68A38.7,38.7,0,0,0,222,258.11a27.4,27.4,0,0,0-12.23-2.75,26.4,26.4,0,0,0-12,2.75,41.63,41.63,0,0,0-10.24,7.3q-9.48,9.48-9.48,22.19A29.66,29.66,0,0,0,187,309.4q9.11,9.11,22.76,9.1,13.85,0,22.75-8.72,9.3-8.71,9.3-22.18A29.39,29.39,0,0,0,232.33,265.6Zm-3-64.29q-7.77-7.77-19.53-7.77a26.26,26.26,0,0,0-19.34,7.77q-7.78,7.78-7.78,19.54A26,26,0,0,0,190.43,240a33.89,33.89,0,0,0,8.62,6.26,23.32,23.32,0,0,0,10.72,2.46,25.39,25.39,0,0,0,10.9-2.27,30.43,30.43,0,0,0,8.63-6.07q7.77-7.77,7.78-19.53T229.3,201.31Z"/><path class="cls-1" d="M280.5,323.63V196H257.56l5.12-7.77h25.6v135.4Z"/><path class="cls-1" d="M342.25,282.74a10.07,10.07,0,0,1-7.16,2.89,10.32,10.32,0,0,1-10-9.89,10,10,0,0,1,2.9-7.07,10,10,0,0,1,17.12,7.07A9.2,9.2,0,0,1,342.25,282.74Zm-12.38,39h-3.22l31.19-57.4h3.22Zm10-50.73a6.47,6.47,0,0,0-4.74-2,6.23,6.23,0,0,0-4.66,2,6.48,6.48,0,0,0-2,4.74,6.16,6.16,0,0,0,2,4.59,6.38,6.38,0,0,0,4.66,2,7.41,7.41,0,0,0,4.74-1.92,6.41,6.41,0,0,0,2-4.67A6.48,6.48,0,0,0,339.83,271Zm18.5,48.48a10.09,10.09,0,0,1-7.16,2.89,10.32,10.32,0,0,1-10-9.89,10,10,0,0,1,2.9-7.07,10,10,0,0,1,17.12,7.07A9.25,9.25,0,0,1,358.33,319.48Zm-2.42-11.74a6.48,6.48,0,0,0-4.74-2,6.21,6.21,0,0,0-4.66,2,6.48,6.48,0,0,0-2,4.74,6.12,6.12,0,0,0,2,4.58,6.39,6.39,0,0,0,4.66,2,6.69,6.69,0,0,0,4.66-1.93,6.41,6.41,0,0,0,2.09-4.66A6.48,6.48,0,0,0,355.91,307.74Z"/><path class="cls-1" d="M256.3,0V5.19C394.68,5.36,506.81,117.58,506.81,256S394.52,506.8,256,506.8,5.2,394.51,5.2,256A249.43,249.43,0,0,1,34,139.35l-4.42-2.76A254.51,254.51,0,0,0,0,256C0,397.38,114.61,512,256,512S512,397.38,512,256,397.54.16,256.3,0Z"/></svg>