<svg id="Ebene_4" data-name="Ebene 4" xmlns="http://www.w3.org/2000/svg" viewBox="0 0 512 512"><defs><style>.cls-1,.cls-2,.cls-4{fill:#efefef;}.cls-2{font-size:189.63px;}.cls-2,.cls-4{font-family:GeosansLight;}.cls-3{letter-spacing:-0.06em;}.cls-4{font-size:80.39px;}</style></defs><title>85Percent</title><path class="cls-1" d="M256,0c-.34,0-.67,0-1,0V5.22c.34,0,.67,0,1,0C394.52,5.19,506.81,117.48,506.81,256S394.52,506.8,256,506.8,5.2,394.52,5.2,256A249.62,249.62,0,0,1,57.51,102.77l-3.69-3.7A254.78,254.78,0,0,0,0,256C0,397.38,114.62,512,256,512S512,397.38,512,256,397.39,0,256,0Z"/><text class="cls-2" transform="translate(144.24 323.63)"><tspan class="cls-3">8</tspan><tspan x="92.73" y="0">5</tspan></text><text class="cls-4" transform="translate(345.69 321.73)">%</text></svg>