<svg id="Ebene_3" data-name="Ebene 3" xmlns="http://www.w3.org/2000/svg" viewBox="0 0 512 511.97"><defs><style>.cls-1{fill:#efefef;}</style></defs><title>86Percent</title><path class="cls-1" d="M208.05,315.26q-11.19,10.8-28.26,10.81-17.25,0-28.44-10.62-11.19-10.81-11.19-27.88a37.09,37.09,0,0,1,6.64-21.81q6.63-9.28,18.58-13.84-9.48-2.83-15.17-12.13a35.52,35.52,0,0,1-5.5-19q0-15.36,9.67-25,9.68-9.85,25-9.86,15.54,0,25.22,9.67t9.67,25.22a34.66,34.66,0,0,1-5.69,19.34,28.11,28.11,0,0,1-15.55,11.76,42,42,0,0,1,16.69,10.81q9.28,9.87,9.29,24.84Q219.05,304.46,208.05,315.26ZM202,265.58a39.13,39.13,0,0,0-10.33-7.5,27.4,27.4,0,0,0-12.23-2.75,26.37,26.37,0,0,0-11.95,2.75,41.68,41.68,0,0,0-10.24,7.31q-9.48,9.48-9.48,22.18a29.66,29.66,0,0,0,8.91,21.81q9.1,9.11,22.76,9.1,13.83,0,22.75-8.72,9.29-8.72,9.29-22.19A29.36,29.36,0,0,0,202,265.58Zm-3-64.29q-7.78-7.77-19.53-7.77a26.26,26.26,0,0,0-19.35,7.77q-7.77,7.78-7.77,19.53A26.06,26.06,0,0,0,160.07,240a33.84,33.84,0,0,0,8.63,6.25,23.18,23.18,0,0,0,10.72,2.47,25.28,25.28,0,0,0,10.9-2.28,30.37,30.37,0,0,0,8.63-6.07q7.77-7.77,7.77-19.53T199,201.29Z" transform="translate(0)"/><path class="cls-1" d="M316.33,313.55Q303.06,326.82,283,326.83q-20.67,0-33.56-12.9-12.9-13.28-12.9-33.75v-6.07a14.61,14.61,0,0,1,.19-2.28c.13-.76.32-1.83.57-3.22a50.94,50.94,0,0,1,1.33-5.31,45,45,0,0,1,2.46-7.49q1.52-3.51,3.23-6.73l33.94-60.87h8.92L258.3,240.73l8-4,8.15-2.27,8.53-.76q19.92,0,33.19,13.27,13.46,13.47,13.46,33.19Q329.6,300.28,316.33,313.55Zm-5.69-60.68a38.88,38.88,0,0,0-66.56,27.31q0,16.88,11,27.87,11.19,11.19,27.87,11.19t27.88-11.19Q322,296.86,322,280.18,322,264.63,310.64,252.87Z" transform="translate(0)"/><path class="cls-1" d="M362.18,282.72a10.07,10.07,0,0,1-7.16,2.89,10.3,10.3,0,0,1-10-9.89,10,10,0,0,1,2.89-7.07,10,10,0,0,1,17.12,7.07A9.2,9.2,0,0,1,362.18,282.72Zm-12.38,39h-3.22l31.2-57.4H381Zm10-50.73a6.49,6.49,0,0,0-4.75-2,6.23,6.23,0,0,0-4.66,2,6.48,6.48,0,0,0-2,4.74,6.12,6.12,0,0,0,2,4.58,6.37,6.37,0,0,0,4.66,2,7.46,7.46,0,0,0,4.75-1.92,6.41,6.41,0,0,0,2-4.67A6.48,6.48,0,0,0,359.77,271Zm18.49,48.48a10.11,10.11,0,0,1-7.16,2.89,10.32,10.32,0,0,1-10-9.89,10,10,0,0,1,2.9-7.07,10,10,0,0,1,17.12,7.07A9.22,9.22,0,0,1,378.26,319.46Zm-2.41-11.74a6.51,6.51,0,0,0-4.75-2,6.23,6.23,0,0,0-4.66,2,6.48,6.48,0,0,0-2,4.74,6.12,6.12,0,0,0,2,4.58,6.39,6.39,0,0,0,4.66,2,6.72,6.72,0,0,0,4.67-1.93,6.45,6.45,0,0,0,2.09-4.66A6.52,6.52,0,0,0,375.85,307.72Z" transform="translate(0)"/><path class="cls-1" d="M257.23,0V5.19C395.17,5.86,506.8,117.86,506.8,256c0,138.51-112.28,250.8-250.8,250.8S5.19,394.48,5.19,256c0-113.43,75.32-209.23,178.66-240.22l-1.59-4.95C76.83,42.47,0,140.23,0,256,0,397.35,114.61,512,256,512S512,397.35,512,256C512,115,398,.66,257.23,0Z" transform="translate(0)"/></svg>