<svg id="Ebene_4" data-name="Ebene 4" xmlns="http://www.w3.org/2000/svg" viewBox="0 0 256 256"><defs><style>.cls-1{fill:#111;}</style></defs><title>Ai_Icon</title><rect class="cls-1" x="122.5" y="123.5" width="164" height="11" transform="translate(333.5 -75.5) rotate(90)"/><rect class="cls-1" x="46" y="200" width="164" height="11"/><rect class="cls-1" x="-28.5" y="120.5" width="160" height="11" transform="translate(-74.5 177.5) rotate(-90)"/><rect class="cls-1" x="46" y="46" width="164" height="11" transform="translate(256 103) rotate(180)"/><path class="cls-1" d="M141.62,167.66l-22.4-79.89a1.06,1.06,0,0,0-1-.77h-8.4a1.06,1.06,0,0,0-1,.77l-22.4,79.89a1.05,1.05,0,0,0,1,1.34H95.2a1.06,1.06,0,0,0,1-.77L102.73,145h22.54l6.51,23.23a1.06,1.06,0,0,0,1,.77h7.81A1.05,1.05,0,0,0,141.62,167.66ZM105.26,136,113,108.44a1,1,0,0,1,2,0L122.74,136Z"/><rect class="cls-1" x="152" y="107" width="10" height="62" rx="2.1" transform="translate(314 276) rotate(180)"/><circle class="cls-1" cx="157" cy="94" r="7"/></svg>