<svg id="Ebene_2" data-name="Ebene 2" xmlns="http://www.w3.org/2000/svg" viewBox="0 0 256 256"><defs><style>.cls-1{fill:#111;}</style></defs><title>Unity_Icon</title><polygon class="cls-1" points="138.42 121.88 47.44 121.88 102.84 65.44 88.12 65.44 28 126.78 88.16 188.1 102.88 188.09 47.45 131.69 138.42 131.69 138.42 121.88"/><polygon class="cls-1" points="130.91 128.19 176.7 205.63 99.91 186.7 107.41 199.37 190.82 219.86 212.94 136.86 205.43 124.2 185.13 200.62 139.35 123.19 130.91 128.19"/><polygon class="cls-1" points="140.13 129.49 184.65 51.31 206.15 127.42 213.45 114.64 190.03 32 106.94 53.79 99.65 66.58 176.12 46.45 131.61 124.62 140.13 129.49"/></svg>