<svg xmlns="http://www.w3.org/2000/svg" viewBox="0 0 595.28 841.89"><defs><style>.cls-1{fill:#fff;}.cls-2{fill:#896a5c;}.cls-3{fill:#cea78a;}.cls-4{fill:#303033;}.cls-5{fill:#574b45;}.cls-5,.cls-6,.cls-8{opacity:0.5;}.cls-6{fill:#615047;}.cls-7{fill:#131313;}.cls-8{fill:#a98977;}.cls-9{fill:#c6b38b;}.cls-10{fill:#897a5c;}.cls-11{fill:none;}.cls-12{fill:#f2efe9;}.cls-13{fill:#eeeae4;}.cls-14{fill:#1e2142;}.cls-15{fill:#656ea6;}.cls-16{fill:#89635d;}.cls-17{fill:#353b5b;opacity:0.23;}.cls-18{fill:#c96162;}.cls-19{fill:#634e42;}</style></defs><title>Annika</title><g id="Ebene_11" data-name="Ebene 11"><rect class="cls-1" width="595.44" height="840.1"/></g><g id="Ebene_10" data-name="Ebene 10"><path class="cls-2" d="M570.6,57.15C522.85,88.84,466.83,153.1,466.83,271.46s93.73,157.88,103.77,214.3c13.94,78.42,21.14,48,24.84-11.07V81.38C590.63,60.32,582.86,49,570.6,57.15Z"/><path class="cls-3" d="M593.18,95.08s-15.1-12.06-49.37,2C509.85,111,500,132.93,500,132.93a73.65,73.65,0,0,0-11.83,28.78c-3.15,17.35-10.64,61.12-10.64,61.12s-9.86,31.54-10.65,41.4,3.95,39.82,4.73,50.07,7.15,62.1,54.07,89.31,66.19,18.92,68.47,18.53S593.18,95.08,593.18,95.08Z"/><path class="cls-4" d="M497.14,221.14a46.26,46.26,0,0,0,9.75-6.9c3.85-3.83,23.55-7.49,31.82-6s16.42,9.39,18.19,12.25c0,0,2.14.91,4.65,1.73.08-1.49-4.75-7.52-10.4-11.3-1.75-1.18-4.47-3-11.12-3.37s-18.9-.81-29,3.66C506,213.4,504.62,216.26,497.14,221.14Z"/><path class="cls-4" d="M586.54,307.41l7.38-9.81v8.91A11,11,0,0,1,586.54,307.41Z"/><path class="cls-5" d="M593.92,212.48s-2.06,19.22-2.06,24.54.89,3.84,0,11.53-2.05,16.56,0,21.29l2.06,4.74Z"/><path class="cls-6" d="M520.85,400.6s9.8,10.6,11.57,16.81,9.47,26.61,13.9,29,22.18,8.28,22.18,8.28-13.6-10.35-17.15-22.77-1.77-8.14-1.77-8.14,14,3.27,21.74,5.48a115.07,115.07,0,0,0,22.54,3.84l.33-10.94a46.41,46.41,0,0,1-15,1.32c-4.55-.43-21.15-3.25-35-10.23C533.15,407.73,525.12,403.81,520.85,400.6Z"/><path class="cls-7" d="M586.47,459.18c-5.92-.52-22.18-5.94-28.06-8-2.95-1-21.94-19.48-26-33.77,0,0-1.56-5.75-11.57-16.81,0,0-11.94-8.25-17-13.72s-19.28-22.23-24.34-39a44.08,44.08,0,0,0,1.23,5.57s16.65,47.84,31.58,69.85c-2-2.4-3.37-4.2-3.37-4.2s-2.41.41-1.62,7.11,42.58,79.45,42.58,79.45l45.57,51.26V459.74S592.38,459.7,586.47,459.18Zm-62.7-24.54h0Z"/><path class="cls-5" d="M557.41,283.45s-4.14,5.28-3.55,11.14a5.54,5.54,0,0,0,5.92,5.42s-4.58-3.11-4.43-6.95A34.58,34.58,0,0,1,557.41,283.45Z"/><path class="cls-8" d="M560.58,220.07s-14.43-12.3-20.55-12.54-28.56,2.45-30.26,4.14-9.26,7.66-12.34,9.31c-.77-3.66-.86-8.34-2-13.69-4.93-23.79,17.05-90.46,17.05-90.46s-37.83,52.41-45.68,90.69,5.28,124.08,12.64,140.33,19.68,42.25,26.22,45.41,20.53,10.63,20.53,10.63-11-31.29-3.55-42.67c8.25-12.53,11.11-13.37,11.11-13.37s-10.84-11.44,0-31.87c11.64-22,10.86-13.32,1.52-41.4-2.92-8.78-2.7-27.5-2.52-34.11,9.18-.47,19-1.68,24.14-4.48C568.35,229.78,560.58,220.07,560.58,220.07Z"/><path class="cls-8" d="M597.05,85.21c-.95,0-22.41-5.2-26.63.85-8.3,16.21-15.7,45.39-15,70.62.55,20.69,25.76,32.28,31,47.12,2.83,8.08,1.09,15.38.79,19.62-1.17,16.38-5.33,28.09-5.92,33.41s-1,15.38.8,21.89,3.64,7.29,3,12.42c-.84,5.42-.75,6.3-4.68,13.06,1.87,2.17,3.65,2.36,6.26,3.21,1.25-1.64,7.38-9.81,7.38-9.81l.31-23s-3.7-3.85-3.7-12.72c0-10.11,2-15,1.73-18.33s-.89-6.54.38-18.06S597.05,89,597.05,85.21Z"/><path class="cls-8" d="M580.28,304.2s6.82,6.45,13.64,2.31v28.91a10.35,10.35,0,0,1-2.71-.35s.79-21.82-.32-24.51S585.56,310.06,580.28,304.2Z"/><path class="cls-9" d="M593.92,9.61s-9.15-.59-12.7,3.55,0-6.34-14.79-5.71-41,0-64.07,32.52A239.46,239.46,0,0,0,486.19,59.1c-6.3,8.67-48.69,68.5-62.29,105.17S398.76,246.48,391.37,271c-1.16,3.84-98.15,183.27-63.06,373.32-21.68-179.8,53-343.44,49.87-334.73-10,28.18-21.68,60.45-23.78,71.12-3.25,16.56-5.62,31.15-13.3,52.74s-28,95.32-33.13,113.75c0,0,30.76-82.51,36.38-102.32,1.9-6.69-.81,7.63-4,25.24-.19,1-4.79,23.93-4.84,26.21-.11,4.7-1.19,22.77-1.19,22.77s6,81.2-27.5,222.68c32.53-107.64,29.77-209.72,30-203.06.5,16.71,3.05,64.52,7.52,103.74.24,2.08-42.22,54-1.42,156-9.26-66.89,3.88-131.72,4.4-123.24,1.32,21.48.81,40-3.4,50.43-13.41,33.12-26,68.61-40.22,82.8,0,0,27.6-10.25,39.43-42.58s18.92-53.62,21.29-79.64-12.62,74.12-18.93,100.93-11.37,53-11.37,53H595.44l-1.25-250.88s-1.93-67-25.59-81.22c-10.45-6.27-19.52-17.55-36.57-40.52a153.06,153.06,0,0,0,25.53,24.94c-10.94-11.8-33.7-42-35.61-45.59-4.33-8.1-8.53-16.44-12.5-24.73-1.21-2.5,15.38,23.2,26.82,33.26-17-23.07-35.28-55.1-36.08-56.88-3.95-8.74-7.15-12.38-9.66-19-11.22-29.69-9.94-25.57-14.07-39.46-6.51-27.33-6.42-35.84-6.83-43.34-.3-5.67,5.43,20.7,11.73,49.48-7.49-40.32-13.73-69.44-13.85-71.56a55.4,55.4,0,0,1,.63-12.1c.11-.73,5.4,15.41,10.32,32.8,3.54,14.15,5.88,20.65,8.72,33.71,3.23,14.85,8.14,42.32,8.45,60.61.18-.85-3-51.44-10.05-75.81-3-9.44-3.72-17.48-7.57-29.9-5.85-18.91-7.26-33.19-7.24-34,.15-6.06,1.19-8.32,2.06-11.47.36-1.32,2,18.92,8.73,43.86-5.52-29.58-7.1-43.28-6.84-51.63.07-2.37.48-2.67.43-4.17,0,0,4.62,23.92,5.52,28,1.19,5.32-4.33-26-2.95-41.4.64-7.15,3.12-17.79,4.33-23.27,2.37-10.64,2.17-17.43,7.1-34.3,2.43-8.29,11.37-22.61,19.52-34.3,7.16-10.28,13.1-18.28,21.84-21.69,7-2.74,16.85-7.54,26.61-8.28-2.66,0-3.63-.4-2-1.08,1-.4,4.79-.63,5.67-1,1-.42-2.46-.6-2.07-.74,2.28-.8,3.85-1,7.69-.59,1.18.14-3.91-1.23-2.81-1.33,3.84-.35,4.73-.16,6.8-.44,1.05-.15-2.66-.16-1.62-.45,10.64-3,8-3.84,17.15,1.48s8,3.28,8,3.28Z"/><path d="M567.47,206.12c-.45-.89-5.47-3-5.47-3l.55,1.38L558,202.07l.56,1.5-5-3.22.67,1.21-4.71-2.29-.37.82-3-1L546,200l-6.61-2.79.42.63-5.64-2-5.47-1.68,1.78,1.18-10-2.56,1.28.94-9.17-1.58,1.13.64-7.49-.54,1.33.89L502,193l-3.1,0-3.6.54-2.31.35-1.25.45-3.19,1.17-5.17-.15s4.14-4.73,9-6.8,10.5-4.43,13.76-4.73l4.43-1.33h6.66a34,34,0,0,1,5.91,0,87.28,87.28,0,0,1,12,2.22c3.69,1,26.56,9.12,30.26,14.59Z"/><path d="M561.55,299.42s1.78-4.44,4.88-4.73,3.07.11,4.64,1.33a42.7,42.7,0,0,1,3.27,3.66c-4.88-4.84-4.29-1.26-3.77-.26C571.2,300.63,565.4,301.34,561.55,299.42Z"/><path class="cls-10" d="M593.92,95.77,580.63,91s-3.4-5.86-38.45,7.5c0,0-19.17,3.94-27.35,18.43,0,0-7.79,12.56-11.54,17.2-10.19,12.62-15.89,27.7-15.89,27.7s10.28-43.87,20.92-55.55c7.42-8.14,61.07-32,70.53-28.09a44,44,0,0,1,15,10.25Z"/><path class="cls-10" d="M503.82,40.76a109.27,109.27,0,0,1,8.92-10.07A45.12,45.12,0,0,0,503.82,40.76Z"/><path class="cls-10" d="M485.41,135.29c-2.37,16.86-4.44,24-4.74,32.83s-1.47,16-2.36,22.77-2.63,24.84-2,32.53c0,0,5.88-26.91,5.29-31.64s11.24-50.57,11.24-50.57a112.2,112.2,0,0,0-6.53,12.19c1.31-4.92,4.18-14.12,9.49-20.18,8.28-9.46,4.14-12.42-5.62.89,0,0,6.5-15.67,11.23-18.93a41.36,41.36,0,0,0-5.21,4.44c2.28-3.42,5-7.13,7.41-9-2.54,1.63-7.36,4.93-9.79,7.84a84.57,84.57,0,0,1,11.91-13.3c-4.13,2.8-8.53,6-10.23,8,0,0,13.45-18,25.36-19.22,0,0-11.43,0-19.23,7.19,4.23-4.39,11.51-9.53,22-8.67,0,0-11.17-4.76-19.73,2.37,0,0,4.65-7,12.56-7.91,5-.61,13.64,1.22,15.16,1-3.4-2,1.29-4.81,1.29-4.81s1.81-1.73,6,1.41c-.15-1.56-2.89-3.81-2.89-3.81a33.32,33.32,0,0,1,5.42.91,5.08,5.08,0,0,0-2.88-2.38s5-3.68,10-2.4c-.74-1.58-3.83-1.88-3.83-1.88a13.34,13.34,0,0,1,8,.4,5.91,5.91,0,0,0-4.48-2.86s1.92-.93,6.7,1.63a7.49,7.49,0,0,0-3.11-3.55s3.41-1.38,9.47.84c-2.22-2.51-7.3-3.84-7.3-3.84s3.35-.69,11.53,3.44c.7.35-.91-.62-3.16-1.9a55.85,55.85,0,0,1,9.33,5.6l-4.69-4.24,4.48,1.76L566.83,69,571.06,70s-5.22-2.53-4-2.73a9,9,0,0,1,3.35.59c-1.67-1.38-4.73-1.38-4.73-1.38,1.09-.69,5,.68,5,.68s-2.7-3.33-4.18-3.83,2.66,0,2.66,0c-1.38-2-6.11-3.16-6.11-3.16a26.29,26.29,0,0,1,5.86,1.8,43.67,43.67,0,0,0-5.66-3.67c-.76-.37,5.1,1.95,5.1,1.95a19.89,19.89,0,0,0-3.72-3.43c-1.07-.7,3.76.32,3.76.32-1-2.37-4.78-5.11-4.94-4.85-1.78-1.68,5-6,5-6-4.37-7.83-8.13-18.92-4.93-11s6.36,5.87,6.36,5.87c-4.73-5.52-4.38-10.2-4.38-10.2,1.57,7.09,4.9,8.28,4.9,8.28,2.44-5,16-15.16,23.57-13-7.23-4.43-19.77,5.28-19.13,4.39,10.2-14.33,19.13-14.64,19.13-14.64-9-1.18-19.8,12.23-19.8,12.23,2-9.86,19.8-15.38,19.8-15.38-12.93,2-16.69,7.1-16.69,7.1,3.11-6.31,16.69-10.26,16.69-10.26-7.45,0-14.52,4.21-14.52,4.21s.23-2.69-5.87-5.54a16.8,16.8,0,0,0-12-.65c-19.36-2.85-38.17,12.3-48.81,23.06,11.73-10,26.2-13.58,26.2-13.58-12.71,4.33-27.12,18.53-27.12,18.53l13.82-6.81A103.36,103.36,0,0,0,500.39,52.2L510.54,45a127.86,127.86,0,0,0-10.55,12L510.51,49c-10.07,10-21.16,28.78-21.16,28.78s8.72-9.51,14.83-16.34c-7.57,10.42-18.77,28.82-18.77,28.82l8.41-10.55c-3.51,5.44-6.42,10.55-6.42,10.55l19.69-18.74L491.71,90.26s23.56-20.91,36.57-25.67a44.83,44.83,0,0,1,20.25-.29c-20.08.38-41.66,18.19-45.68,22.35C492.08,97.79,487.77,118.44,485.41,135.29Zm11.73-28.39,0-.06Z"/><path class="cls-10" d="M503.57,110.6c1-.65,1.65-1,1.65-1A7,7,0,0,0,503.57,110.6Z"/><path class="cls-10" d="M505.69,105.14c4.51-3,8.7-5.63,8.7-5.63A31.08,31.08,0,0,0,505.69,105.14Z"/><path class="cls-10" d="M585.57,32.18a21.3,21.3,0,0,0-11.65,4.76s-2.36,1.58-4,8.16L572.74,42s10.65-9.07,17-7.3c0,0-7.19-3-16.26,5.32C573.53,40,579.11,33.51,585.57,32.18Z"/><path class="cls-10" d="M591.27,32.58a9.8,9.8,0,0,0-5.7-.4A16.7,16.7,0,0,1,591.27,32.58Z"/><path class="cls-10" d="M587.11,58c1.64.22,2.78.45,2.78.45A8.48,8.48,0,0,0,587.11,58Z"/><path class="cls-10" d="M588.23,62.77c.46.11.84.22,1.12.3A10.88,10.88,0,0,0,588.23,62.77Z"/><path class="cls-10" d="M589.35,63.07c.18.06.36.1.54.17Z"/><path class="cls-10" d="M593.92,47.07s-7.67-4.63-18,1.87c0,0,2-7.68,12.62-7.19,0,0-7-2.56-11.73,1s-3.81,2.35-6,5.9c0,0,1.64-1.16,1.54-.67a6.68,6.68,0,0,0-1.68,2.48s-1.08,0,1.28.18a6,6,0,0,0-1.7,2.86s1.42-.73,1.7-.3a8.36,8.36,0,0,1-1.14,1.4s.35-.26,1.59,2.29a7.73,7.73,0,0,1,1,4.14l-2.65-2.61s3.29,4.44,2.9,7.1c0,0,7.81-4.19,14.6-2.73-2.72-.69-8.24-1.75-12.53-.32,0,0,5.84-4.53,11.41-4.49-3-.39-7.84-.73-10.53.55,0,0,5.33-4.24,10.55-3.45a10,10,0,0,0-9.56-.1s3.65-5.52,14.2-3.16c0,0-5.27-4.63-15-.59C576.78,51.21,585.94,45.1,593.92,47.07Z"/><path class="cls-10" d="M409.31,556.89c3.94,13.4,5.52,41.79,7.09,65.45S400.63,679.91,392,699.62s-4.73,33.12-7.1,67-20.5,70.18-20.5,70.18c13.4-19.71,31.54-81.22,37.06-98.57s27.6-85.17,30-102.51S409.31,556.89,409.31,556.89Z"/><path class="cls-10" d="M431.55,786s27.22-46.17,29.8-99c2.76-56.38-28.22-161.66-29.8-174.27s-3.21-57.68-7.36-89.1c-1.59-12.05,9.56-107.46,12.32-140.18s7.12-101.12,7.12-101.12-25.47,221-24.07,236.74c2.56,28.8,3.6,31.86,4.63,52.75,1,19.71,2.39,41.57,7.12,58.13S450,616.21,453.86,647.18c3.69,29.77,5.13,37.06-2.36,73.73A359.42,359.42,0,0,1,431.55,786Z"/><path class="cls-10" d="M394.32,331.35S341.54,441.71,338,482s-7.14,78.38.93,98.71,9.84,84.36,12.06,101.56V541.74c0-31.24,14.95-113.69,22.83-141.14S394.32,331.35,394.32,331.35Z"/><path class="cls-10" d="M410.29,270.63l-5.71,24.84c3.74-7.09,10.84-34.3,10.84-34.3l-10.84,44.14c5.12-13.23,20.1-74.89,20.1-74.89s-2.56,20.89-3.54,29.94-4,25.74-6.12,39.66c-5.12,33.75-5.91,91.66-5.91,91.66,5.91-43.83,6.51-74.52,15.18-117.1,5.13-25.16,1.58-35.49,3.15-73.42s29.68-89.82,29.68-89.82c-9.63,8.28-26.29,46.44-38.19,76a52,52,0,0,0-4.19,10.52c-5.85,14.87-9.79,25.6-9.79,25.6l8.87-22.53c-4.24,14.67-8,34.36-8,34.36,3.84-10.95,13.64-34.09,13.64-34.09-.84,12.65-16.6,55.78-16.6,55.78,3.75-6.07,9.65-24.11,14-38.32l-17.64,60.1c4.93-7.1,19-39.33,19-39.33l-19,58.21C403.2,289.52,410.29,270.63,410.29,270.63Z"/><path class="cls-10" d="M440.52,436.63s12.36-206.71,13-230.51S483.34,99.51,483.34,99.51s-32.65,78.82-33.63,112.16S440.52,436.63,440.52,436.63Z"/><path class="cls-10" d="M399.25,384.19s-18.33,37.65-20.7,70.48c-4,40.18-8.67,69.1-7.88,93.54S377,571.87,375.4,594s-11,59.14-11,59.14,19.71-30.75,20.5-59.14-5.05-40.83-3.05-74.13C384.81,469.84,392.35,400,399.25,384.19Z"/><path class="cls-10" d="M500.78,682.27l-3.11-8.34s.3,9-.88,9.77c0,0-1.77-4.14-5.38-5.32,0,0,2.06,6.65,0,9,0,0,1.88-3.16-5.61-8.68,0,0,2.76,17,0,32.73a221.53,221.53,0,0,1-6.31,26.81s10.25-15,11.44-24c0,0,.78,7.89,0,10.25,0,0,6.7-8.87,6.7-19.32v12.62s3.15-12.62,2.76-23.66c0,0,2.36,9.07,2,14.39,0,0,2.41-23.46-.39-34.1A13.36,13.36,0,0,1,500.78,682.27Z"/><path class="cls-10" d="M491.41,762.51s-41.7,28.78-50.89,37.26c-7.52,6.93-13.08,25.94-13.08,40.33h29.68s15.27-34.42,18.82-49.2c0,0-23.48,23.06-26.23,38.44,0,0-1.56-29.37,18.54-43.37,0,0-18.48,11.38-22.62,14.57S468,779,491.41,762.51Z"/><path class="cls-10" d="M513.4,772.75c1-9.45,4.34-22.27,4.73-20.69s1,8.08,1.58,19.77c3.85-9.32-.4-22.92,1.58-19.77s4,19.72,4,19.72V749.7c2.42,4.73,3.89,16.95,3.89,16.95,1.18-7.1-7.88-47.31-7.88-47.31.39,7.88-2,11-6.71,20.5S509.65,761.13,513.4,772.75Z"/><path class="cls-10" d="M531.14,801.3s2-13.36,0-15.33c0,0-2,12.14-4.33,15.33,0,0,3.36-15.33,2.47-19.27,0,0-1.72,11.73-6.39,18.78,0,0,2.52-12.59,2.34-18.78,0,0-3.1,11.73-7.44,19.27,0,0-3.94-12.85-3.5-17.7a112,112,0,0,0-3.5,12.33s-.84,5.37,0,9c1.41,6,7.34,17.34,6.16,24.44a42.38,42.38,0,0,1-3,10.76h17.84S538.24,797,533.9,786C533.9,786,534.3,797.32,531.14,801.3Z"/><path class="cls-10" d="M566,805.88c-1.08-5-2.12-9.69-2.9-12.81-2.76-11-4.73-59.15-4.73-59.15s.54,23.37-1.18,33.91c-2.33,14.2-2.37,58.75-2.37,58.75,2.37-8.67,2-36.27,3.94-29.57s-1.93,43.09-1.93,43.09,2.33-3.27,4.3-17.46a113,113,0,0,0,.94-17.56c1.31,11.93,9.7,29,9.7,29S568.71,818.67,566,805.88Z"/><path class="cls-10" d="M594.78,653.09,593.92,575a43.8,43.8,0,0,1-2.57,14.17A119.57,119.57,0,0,0,593.92,575a56.44,56.44,0,0,0,0-19.82c-1.74-10.65-22.69-27.11-25.71-28.68-53.53-27.8-78.53-52.86-82.75-66.17-5.07-16-8.61-31.22-8.84-42.92-.27-13.95-.27-20.89-.33-26,2.69,22.29,15.47,71.43,70,108-55.39-53-76.07-185.69-77.42-201.82,0,0,.08,6,.12,15.25.08,20.71-.06,57.89-1.78,81.8-.37,5.11-30.33,93.24,14.62,182.54-32.15-70.77-12.86-142.48-11.79-130.8.33,3.71.71,7.36,1.12,10.91.85,7.38-12.69,60.36,35.94,171.84C471.21,539,475.55,483.42,476.26,485.92a47.86,47.86,0,0,0,3.21,8.67C492.5,520,518,551.89,523.26,575c7.66,33.71-11.26,69.19-10.36,75.11A61.39,61.39,0,0,0,516.16,662s21-27.21,26.23-53.23c.38-25.43-13.81-50.27-17.95-56.78-1.37-2.16-7-13.07-13.93-28.22-.68-1.49,35.17,35.15,36.8,68.83.58,12,5.81,26.52-28.78,81.36,22.52-20.82,38-35.82,48.3-46.26.19,2.3.26,5.1.24,8.27s3.32,30.3-30.68,81c29.19-32.73,31-58.69,30.63-53.82-1.45,20.19-4.73,38.91-3.74,43,2.76,11.26,14,22.7,16.36,43.2s14.28,46.53,14.28,46.53l.86-65.92S587.53,702,586,682.27,594.78,653.09,594.78,653.09Z"/><path d="M544.92,213.07s-3.68-1-6-1.4c-3.08,0-7.69,0-10.26.93a53.6,53.6,0,0,0-8.45,2.45,36.61,36.61,0,0,0-6.37,3.33,13.16,13.16,0,0,1-5.68,2.76s-4.81,4.79-10.13,5.83c0,0,7.91-3.05,9.46-5.78a13.58,13.58,0,0,1-10.79,3.63s6.21-.5,9.76-3.68a6.5,6.5,0,0,1-5.77-2.76s3.77,2.77,5.91,2.09c0,0-3.69-1.41-5-3.63,0,0,2.18,1.5,3.83,2.39a4.32,4.32,0,0,0,1.64.64l-1.33-1,2.36-1s-4.06-1-5.62-3,1.93,1.79,6.65,2.66A14.89,14.89,0,0,1,505,215s3.4,1.7,5.32,1.63-2.37-1.7-4.21-3.85c0,0,5.47,3.77,6.13,1.78a19.66,19.66,0,0,1-3.69-5s3.84,5.68,7.31,4.65a47,47,0,0,0-5.24-4.65s5.39,4.14,7.61,3.55-4.44-1.48-6.65-7a10.29,10.29,0,0,0,3.54,3.47c2.66,1.53,4.94,2.77,5.7,1.56a22.74,22.74,0,0,1-5.47-7.77s5.33,9.39,10.87,7.62c0,0-1.63-4.07-2.74-4.88,0,0,4.38,5.17,6.18,4.29a30.72,30.72,0,0,1-3.44-8,20.68,20.68,0,0,0,2.46,4.29c1.45,1.85,3.52,4.29,5.22,3.18s-.44-8.73-.44-8.73,2.22,7.1,3.7,8.14a10.74,10.74,0,0,0,3.77,1.4s-.52-6-1.19-7.61S544.92,212,544.92,213.07Z"/><path class="cls-11" d="M509.16,221.25l.18-.08C509,221.06,509.16,221.25,509.16,221.25Z"/><path class="cls-12" d="M521.24,219.18a11.11,11.11,0,0,1,1.19-4.94c-5.2,1.76-8.37,3.82-9,4.54a15.73,15.73,0,0,1-4.06,2.39,28.73,28.73,0,0,1,4.65,2.94c3,2,7.83,3.53,12.23,4.37A11.16,11.16,0,0,1,521.24,219.18Z"/><path class="cls-13" d="M553.79,223.42c-5.86-8-7.53-9.91-12.68-11.22a11.07,11.07,0,0,1-2.17,16,64.8,64.8,0,0,1,12.8-1A5.85,5.85,0,0,1,553.79,223.42Z"/><path class="cls-14" d="M529.66,212.41c.6-.11,1.16-.24,1.78-.33l1.4-.18c-.14,0-.27,0-.42,0A7.31,7.31,0,0,0,529.66,212.41Z"/><path class="cls-15" d="M541.11,212.2a22.63,22.63,0,0,0-8.27-.3l-1.4.18c-.62.09-1.18.22-1.78.33a51,51,0,0,0-7.23,1.83,11.07,11.07,0,0,0,3.79,14.24c3.83.73,7.3,1,8.77.65,1.06-.23,2.38-.56,4-.89a11.07,11.07,0,0,0,2.17-16Zm-8.69,3.23a3.75,3.75,0,1,1-3.74,3.75A3.75,3.75,0,0,1,532.42,215.43Z"/><path d="M528.68,219.18a3.75,3.75,0,1,0,3.74-3.75A3.75,3.75,0,0,0,528.68,219.18Zm2.72-1.31a.51.51,0,0,1,0,1,.51.51,0,0,1,0-1Z"/><path class="cls-1" d="M531.4,218.89a.51.51,0,0,0,0-1,.51.51,0,0,0,0,1Z"/><path class="cls-16" d="M553.79,223.42s3,1.77,3.11,2.66-3.48,1.62-4.74,1.4S552.9,224,553.79,223.42Z"/><path class="cls-17" d="M521.37,218.62a70.48,70.48,0,0,0,11-.46,83.5,83.5,0,0,0,10.72-2.11,9.42,9.42,0,0,0-2-3.85c-2.89-.9-9.37-.56-12.82.48a57.22,57.22,0,0,0-5.86,1.56S521.46,215.47,521.37,218.62Z"/><path d="M507.88,220.87a7,7,0,0,0,.61.71c0,.68-4.67,6-4.67,6s5.35-5.1,5.52-5.05c1.28.36-5.13,2.19-5.13,2.19s6.33-1.25,6.67-1a17.42,17.42,0,0,1-2.86,1.55,13.13,13.13,0,0,0,3.66-1c.27.17-2.81,2-2.81,2s3.36-1.58,4.07-1.33c1,.35-.11.8-.11.8a9.6,9.6,0,0,1,2.26.27,8.79,8.79,0,0,1-2.68.95,30.23,30.23,0,0,0,3.72-.48c.41.48-.74.95-.74.95l2.72-.16-.41.71a4.77,4.77,0,0,1,2.14-.22c1.11.3-.48,1.06-.48,1.06a9.61,9.61,0,0,1,2.82-.3c.63.18-.71.57-.71.57a20.66,20.66,0,0,1,2.07-.29,13.54,13.54,0,0,0,5.14.08,33.25,33.25,0,0,1-5.42-1,58,58,0,0,1-6.45-2.25,25.69,25.69,0,0,1-5-3.07,21.42,21.42,0,0,1-2.56-1.7C510,219.06,507.88,220.87,507.88,220.87Z"/><path class="cls-18" d="M539.72,345.35S559.1,362.72,568.5,366s11.73,5.42,16.76,5.72a67.79,67.79,0,0,0,8.67,0V351.56a31.78,31.78,0,0,1-7,1c-3.36,0-14-.39-18.73-2.28L563.46,349a43.74,43.74,0,0,0-5.4-1.67c-1.75-.31-14.47-2.59-17.37-2.56S539.72,345.35,539.72,345.35Z"/><path class="cls-18" d="M537.13,344.38s16.81-6.22,21.69-7,15.36-2.13,23.72-.37a19,19,0,0,1,6.59-1.13c3.76,0,4.8.07,4.8.07v14.44a18.13,18.13,0,0,1-7.75,1.8c-4.12-.09-10.55,0-16.33-1.5s-8.7-2.89-13.28-3.78C552.19,346.1,539.67,344.08,537.13,344.38Z"/><path class="cls-19" d="M593.93,336a49.89,49.89,0,0,0-5.87,0c-1.63.15-5.52,1.06-5.52,1.06s-2.87-.41-4.3-.55a72.2,72.2,0,0,0-13.58.13s13.45-2.22,17.92-.91c5.13-.75,8.28-.84,11.33-.3A2.24,2.24,0,0,1,593.93,336Z"/><path d="M533.76,347.91s1.87-4.83,10,1c-3-2.72-2.76-2.72-3.15-3.55,2.51-.45,16.36,1.85,21.09,3.32a65,65,0,0,0,21.66,4.4,103.61,103.61,0,0,0,10.56-.4v-2.22a20.9,20.9,0,0,1-6.79,1.77,70.66,70.66,0,0,1-20-2.4c-8.32-2.26-8.43-2.82-12.71-3.41s-13.65-2.37-17.33-2C535.18,345.24,534.4,345.25,533.76,347.91Z"/><path class="cls-19" d="M568.5,366s10.33,3.89,16,5c5,.26,9.38,0,9.38,0v1.48a23.27,23.27,0,0,1-10.93-.37A54.17,54.17,0,0,1,568.5,366Z"/></g></svg>