<svg xmlns="http://www.w3.org/2000/svg" viewBox="0 0 297.64 419.53"><defs><style>.cls-1,.cls-3,.cls-9{fill:#fff;}.cls-2,.cls-7{fill:none;}.cls-2,.cls-3,.cls-5{stroke:#231f20;}.cls-2,.cls-3,.cls-5,.cls-6,.cls-7{stroke-miterlimit:10;}.cls-4,.cls-5,.cls-6{fill:#231f20;}.cls-6,.cls-7{stroke:#fff;}.cls-8{fill:#be1e2d;}.cls-9{font-size:29.82px;font-family:Arial-BoldMT, Arial;font-weight:700;}</style></defs><title>ekkamai</title><g id="Market"><g id="Tree"><path class="cls-1" d="M297,330.52l-.45-5.06-1.84-5.28-6.52-2.44-1.71-4.12-.9-1.64L280,314l.77-4.6-2.17-2L274,311.14l-2.5-1.1-1.59.33-3.66-2.93-1,4.83-4.93-.27,2.64,7.28-.56,1.52-2.18-2.67-.72,3.22-2.11,1.18,2.65-4.8-2.58-3.22L252.47,318,251,311.92l-1.87-5.08-.77,5,.64,4.47-2.44,6.46-5,5.36-3.21,2-4.21.7-5.35,3.31-6.7,1.38,5.18,6.45-1.48,5.75,1,5.1-.07,6.49,1,3.73,3.13,3.71,6,2.67-5,7.44,8.88-.59,1.25,4.64,4.68,2,5.08-1.87,4.75,2.32,3.84-5.57,5.8,4.78,6.48,1.68,3.7-1.8,2.59-6.57,6,2.89-1.2-5.25L285,369l6.2-3.82,5.35-3.71.38-5-2.13-5.92,5.41-4.3-2.09-5.2-10.73-1.57,5.9-4.72Zm-63.66,26.37-2.08-1.62-.48-2.89,4.82-3.19,3.32,6.66Zm1.84-19,4.45-.88,2.24,3.26Zm13.42,36.86-2.11.64-1.14,1.58-2.35.8-1.91-4.23,4.34-1.71,6.51-1.61Zm2.58-18.94-1.88,2.67-2.5-4.63,4.13-2.19Zm-1.92-24.85,2.15-6.27,1.1,4.87,2.5,3.8Zm19.37-.39.11,7.56-3.21-5Zm-4.58,15,4.78-1.87-.92,5-6.43-.26Zm-1.19,29.23-4.11-1.6.68-2.24,3.63,1.21Zm7.42-8.27-4.22.41-.31-3.78,4.39-2.78Zm6.48-37.66-4.65-2.56,1.12-3.45,5.35-.87Zm8.77,6-1.77,4-1.18-4.51Zm-.3,22-2.45-7.27,3.74.44Zm4.18-29.34-2.39-4.76,4.05,3.7Z"/><path class="cls-2" d="M297,330.52l-.45-5.06-1.84-5.28-6.52-2.44-1.71-4.12-.9-1.64L280,314l.77-4.6-2.17-2L274,311.14l-2.5-1.1-1.59.33-3.66-2.93-1,4.83-4.93-.27,2.64,7.28-.56,1.52-2.18-2.67-.72,3.22-2.11,1.18,2.65-4.8-2.58-3.22L252.47,318,251,311.92l-1.87-5.08-.77,5,.64,4.47-2.44,6.46-5,5.36-3.21,2-4.21.7-5.35,3.31-6.7,1.38,5.18,6.45-1.48,5.75,1,5.1-.07,6.49,1,3.73,3.13,3.71,6,2.67-5,7.44,8.88-.59,1.25,4.64,4.68,2,5.08-1.87,4.75,2.32,3.84-5.57,5.8,4.78,6.48,1.68,3.7-1.8,2.59-6.57,6,2.89-1.2-5.25L285,369l6.2-3.82,5.35-3.71.38-5-2.13-5.92,5.41-4.3-2.09-5.2-10.73-1.57,5.9-4.72Zm-63.66,26.37-2.08-1.62-.48-2.89,4.82-3.19,3.32,6.66Zm1.84-19,4.45-.88,2.24,3.26Zm13.42,36.86-2.11.64-1.14,1.58-2.35.8-1.91-4.23,4.34-1.71,6.51-1.61Zm2.58-18.94-1.88,2.67-2.5-4.63,4.13-2.19Zm-1.92-24.85,2.15-6.27,1.1,4.87,2.5,3.8Zm19.37-.39.11,7.56-3.21-5Zm-4.58,15,4.78-1.87-.92,5-6.43-.26Zm-1.19,29.23-4.11-1.6.68-2.24,3.63,1.21Zm7.42-8.27-4.22.41-.31-3.78,4.39-2.78Zm6.48-37.66-4.65-2.56,1.12-3.45,5.35-.87Zm8.77,6-1.77,4-1.18-4.51Zm-.3,22-2.45-7.27,3.74.44Zm4.18-29.34-2.39-4.76,4.05,3.7Z"/></g><g id="Sign"><polygon class="cls-2" points="241.96 340.98 240.23 340.04 239.8 351.23 241.45 352.02 241.96 340.98"/><polygon class="cls-3" points="241.45 353.17 214.19 357.62 214.19 356.69 241.45 352.02 241.45 353.17"/><polygon class="cls-4" points="240.23 340.04 239.8 351.23 212.62 356.33 213.12 347.29 240.23 340.04"/><polygon class="cls-3" points="212.62 356.33 214.19 356.69 241.45 352.02 239.8 351.23 212.62 356.33"/><polygon class="cls-3" points="215.56 357.62 218.14 358.05 226.03 357.26 226.03 355.97 215.56 357.62"/><polygon class="cls-3" points="229.93 356.33 245.33 353.96 245.9 342.63 241.96 340.98 241.45 353.17 229.93 355.05 229.93 356.33"/><polygon class="cls-2" points="241.45 353.17 245.33 353.96 245.9 342.63 241.96 340.98 241.45 353.17"/></g><g id="Roof"><path class="cls-4" d="M196,374.27l27.3-6.24a12.47,12.47,0,0,1,0-6A4.37,4.37,0,0,0,226,360c0-2.69-.31-2.33-2.86-2.33-3.24,0-4.25,1-6.32,1.78s-3.9,1.36-3.9,1.36l-24.7,12.43a4.76,4.76,0,0,1,2,.48c.8.46.5.66,1.14.6s.93-.48,2-.35S196,374.27,196,374.27Z"/><path class="cls-2" d="M190.68,374.28v1.05a7.53,7.53,0,0,1,2.65.31c1.17.43,3.08,1.33,3.08,1.33v-2l6.84-.48v-1.91L196,374.27a17.69,17.69,0,0,0-3.29-.36A4,4,0,0,1,190.68,374.28Z"/><path class="cls-2" d="M209.52,374a3.24,3.24,0,0,1-1,.27c-.26-.05-.4-.41-.4-.41s-.41.37-.73.3a1.15,1.15,0,0,1-.48-.38,1,1,0,0,1-.66.21c-.32,0-.51-.35-.51-.35s-.13.16-.65.2a.31.31,0,0,1-.34-.22,1,1,0,0,1-.56.16c-.83,0-.91-.61-.91-.61l15.92-1.83h3.56v1.4Z"/><path class="cls-2" d="M203.46,376.67s-.49-.86-.58-.54-.08.94-.49.84-1.1-1.23-1.43-.91-.49.71-.82.43-.41-.66-.73-.49a.92.92,0,0,1-1.07,0c-.37-.28-.49-.64-.94-.4s-1-.33-1-.33l6.84-.7v-1.1l7.49,1.37-.66.68Z"/><polygon class="cls-2" points="205.45 376.31 204.53 394 203.57 394.27 204.51 376.48 205.45 376.31"/></g><g id="Box_4" data-name="Box 4"><path class="cls-2" d="M197.34,390.7l4.35.8,0,7.57s-1.4-1.18-1.91-1.55a10.63,10.63,0,0,0-2.87-.62Z"/><polygon class="cls-4" points="207.14 390.33 202.24 389.43 197.34 390.46 201.69 391.5 207.14 390.33"/><polygon class="cls-2" points="202.24 399.2 202.29 391.5 201.69 391.5 201.67 399.07 202.24 399.2"/></g><g id="Box"><polygon class="cls-2" points="221.99 387.3 221.99 397.21 214.82 398.51 215.35 388 221.99 387.3"/><g id="Box_5" data-name="Box 5"><polygon class="cls-2" points="207.14 396.74 214.82 398.51 215.35 388 207.14 387.9 207.14 396.74"/><polygon class="cls-2" points="208.36 387.65 214.82 388.06 221.99 387.3 212.43 386.8 208.36 387.65"/></g></g><g id="Electric_Post" data-name="Electric Post"><path class="cls-4" d="M193.22,393.46l1.61-81.77s.33-1.47,1.52-1.13a3.66,3.66,0,0,1,1.67,1l-1.32,82.57s.09,1.57-1.87,1.33A1.68,1.68,0,0,1,193.22,393.46Z"/><polygon class="cls-4" points="181.07 311.5 212.93 311.5 214.76 309.24 179.04 309.24 181.07 311.5"/></g><g id="Electric_joints" data-name="Electric joints"><ellipse class="cls-4" cx="212.6" cy="307.95" rx="0.61" ry="2.34"/><ellipse class="cls-4" cx="206.44" cy="307.95" rx="0.61" ry="2.34"/><ellipse class="cls-4" cx="200.56" cy="308.09" rx="0.61" ry="2.34"/><ellipse class="cls-4" cx="193.46" cy="307.8" rx="0.61" ry="2.34"/><ellipse class="cls-4" cx="187.3" cy="307.8" rx="0.61" ry="2.34"/><ellipse class="cls-4" cx="181.42" cy="307.95" rx="0.61" ry="2.34"/></g><g id="Cables_Right" data-name="Cables Right"><path class="cls-2" d="M181.42,305.61s61.07,34.71,85,33.41,30.92-7.12,30.92-7.12v-4.45s-8,7.36-35.23,4.45-74.78-26.44-74.78-26.44Z"/><path class="cls-2" d="M193.46,305.46s51.46,29.51,68.85,30.06a209,209,0,0,0,35-1.78V322.26s-21.36,9.53-50.11,3.58-46.64-20.08-46.64-20.08Z"/><path class="cls-2" d="M206.44,305.61s36.91,24.5,55.36,24.48c14.46,0,35.51-5,35.51-5V321s-26.56,6.55-38.77,4.07-45.94-19.46-45.94-19.46Z"/></g><g id="Cables_left" data-name="Cables left"><path class="cls-2" d="M181.42,305.61s-4,8.17-6,9.74v3.15s8.81-7.95,11.88-13Z"/><path class="cls-2" d="M193.46,305.46s-13,12-18,13.72v1.35s19.91-6.3,25.14-14.77Z"/><path class="cls-2" d="M206.44,305.61c-6.64,9-31,17.06-31,17.06v3.07s30.41-11.35,37.18-20.13Z"/></g><g id="Sign_Post" data-name="Sign Post"><polygon class="cls-3" points="226.03 369.05 226.03 355.97 228.54 355.61 228.54 367.84 226.03 369.05"/><polygon class="cls-3" points="229.93 355.61 229.93 367.23 228.54 367.84 228.54 355.61 229.93 355.61"/><polygon class="cls-2" points="226.03 373.19 226.03 390.25 228.54 390.25 228.54 372.8 226.03 373.19"/><polygon class="cls-2" points="229.93 373.19 229.93 390.57 228.54 390.25 228.54 372.8 229.93 373.19"/></g><g id="Ground_Tiles" data-name="Ground Tiles"><path class="cls-2" d="M255.55,410.92l36.87,8.61,4.89,0v-2.76l-34.45-8.46,34.45,8.46v-5.14L271.66,406A80.43,80.43,0,0,0,255.55,410.92Z"/><path class="cls-2" d="M280.25,404.7c-3.08.32-6,.79-8.59,1.32l25.65,5.56v-4.75l-14-2.44Z"/><path class="cls-2" d="M283.34,404.39l14,2.44v-3.11S295.12,403.25,283.34,404.39Z"/></g><g id="Box_1" data-name="Box 1"><path class="cls-5" d="M283.64,389.27v7.28s9.94,1.82,9.94,1.46v-7.49Z"/><polygon class="cls-2" points="297.31 389.98 297.31 397.34 293.58 397.74 293.58 390.25 297.31 389.98"/><polygon class="cls-2" points="286.08 389.26 297.31 388.34 297.31 389.97 293.58 390.25 286.08 389.26"/></g><g id="Box_2" data-name="Box 2"><polygon class="cls-2" points="257.54 385.29 257.54 392.91 252.19 393.21 252.19 385.29 257.54 385.29"/><polygon class="cls-2" points="248.54 384.73 243.68 384.7 252.19 385.29 257.54 385.29 248.54 384.73"/><polygon class="cls-4" points="252.19 393.21 243.68 392 243.68 384.7 252.19 385.29 252.19 393.21"/></g><g id="Foliage"><path class="cls-3" d="M250.29,373.82l-3.86,1-2.87-1.61v4.48l2.87-1.38a17.43,17.43,0,0,0,3.86,0c1.34-.26,8.1-2.49,8.1-2.49v-1s-4.31,2.38-5.42,2S250.29,373.82,250.29,373.82Z"/><path class="cls-3" d="M241.89,372.83s-6,1.95-7.31,2-1.43-1.37-1.43-1.37l-.89-.24H226v.63s-.4.15-1.37.41a1.08,1.08,0,0,1-1.32-.41v7.7l2.69-3.39v-.46c0,.58,2.51,1.72,2.51,1.72s.35.5.7.38a2.73,2.73,0,0,0,.69-.38,6.77,6.77,0,0,0,2.23-.6,5.72,5.72,0,0,0,2.42-2.15s5.83,1.78,6.72,1.78a3.25,3.25,0,0,0,1.65-.53V372.8Z"/></g><g id="Pavillon_2" data-name="Pavillon 2"><polygon class="cls-6" points="222.73 370.4 243.25 368.55 246.43 359.95 222.73 370.4"/><rect class="cls-2" x="222.73" y="373.19" width="0.61" height="29.62"/><rect class="cls-2" x="242.95" y="372.8" width="0.61" height="34.9"/><rect class="cls-2" x="269.02" y="372.8" width="0.61" height="28.36"/><polygon class="cls-6" points="222.73 373.19 243.56 372.8 270.13 372.8 270.13 369.53 246.43 359.95 222.73 370.4 222.73 373.19"/><polygon class="cls-6" points="246.43 359.95 243.25 368.55 270.13 369.53 246.43 359.95"/><polygon class="cls-2" points="258.84 372.8 259.13 401.16 258.54 401.16 258.39 372.8 258.84 372.8"/><polygon class="cls-6" points="243.56 372.8 243.25 368.55 222.73 370.4 222.73 373.19 243.56 372.8"/></g><g id="Box_3" data-name="Box 3"><polygon class="cls-6" points="224.76 404.7 204.84 399.65 204.84 390.88 211.9 389.18 235.1 390.95 235.1 403.63 224.76 404.7"/><polygon class="cls-6" points="225.12 393.01 235.1 392.1 235.1 403.63 225.24 404.53 225.12 393.01"/><polygon class="cls-7" points="204.84 390.88 225.12 393.01 235.1 390.95 211.9 389.18 204.84 390.88"/><polygon class="cls-6" points="225.12 393.01 227.29 384.7 219.47 384.7 216.97 392.16 225.12 393.01"/><polygon class="cls-6" points="235.1 392.1 235.1 384.7 227.29 384.7 225.12 393.01 235.1 392.1"/></g><g id="Pavillon_2-2" data-name="Pavillon 2"><polygon class="cls-4" points="280.19 391.1 280.19 380.7 280.26 368.55 297.31 362.08 297.31 372.62 281.91 371.29 280.52 381.68 280.46 391.1 280.19 391.1"/><polygon class="cls-7" points="280.26 368.55 297.31 369.94 297.31 372.62 280.19 370.87 280.26 368.55"/></g><path id="Figure_1" data-name="Figure 1" class="cls-4" d="M239.65,375.87c-.67.17-1,0-1.42.75s-1.2,2.26-1,2.7.49,1.2.36,1.51a15.39,15.39,0,0,0-1.42,3c-.05.67.17,1,0,1.6s-.4,1.91-.4,1.91l.13.13-.2.61a24.76,24.76,0,0,0-1.28,3.56l-.11.1-.12.39.05.12a3,3,0,0,0-.28.84,5.42,5.42,0,0,0-.6,1.15l-.16.83v.36l.87.7.25-.56s0,.18,0,.2.2.11.27-.34a2.53,2.53,0,0,1,.3-.86,8.9,8.9,0,0,1,.36-2.16l.18-.06.06-.4-.06-.15a19.38,19.38,0,0,0,.77-1.89s0,3.28.34,3.5a1.91,1.91,0,0,0,.44.26s-.86,3.73-.88,4.28a5.84,5.84,0,0,0-.56,1.31L234,405.79l.26.24a1.67,1.67,0,0,0-.26.58c0,.22-.2.82.08.9a12.38,12.38,0,0,0,1.84,0,4.5,4.5,0,0,0,1.4.14c.69-.07.73.09,1-.22s.71-.69.4-.89a4.32,4.32,0,0,0-1.18-.27,3.26,3.26,0,0,1-.77-.53,8.08,8.08,0,0,0-.14-1.13l1.09-4.41a8.63,8.63,0,0,0,1.51-3.1,9.89,9.89,0,0,0,.68,1.08s-.51,6.32-.33,6.63a3,3,0,0,0-.22,1,3.66,3.66,0,0,0-.29.73c0,.16-.22.73.11.85a4.53,4.53,0,0,0,1.22.42,2,2,0,0,0,.91.75,2.33,2.33,0,0,0,1.68-.22c.34-.25.56-.36.58-.73s-.82-.34-1-.6-.71-.73-.71-.73.15-.07.09-1.6l1-6.71a10.53,10.53,0,0,0-1.77-5l.51-.09,0-.66a2.17,2.17,0,0,0,.62.26c.13,0,.13.4.22.36l.13-.05a22.88,22.88,0,0,0-.08-4.56,17.18,17.18,0,0,1-.31-2.8.71.71,0,0,0,.64.07c.31-.14.62-.16.64-.36s.37-.28-1-3.42a5.7,5.7,0,0,0-.29-1.42l-.61-.32a6.23,6.23,0,0,0,.2-1.28c0-.53.29-1.69-.06-2.25S239.65,375.87,239.65,375.87Z"/><path id="Figure_2" data-name="Figure 2" class="cls-4" d="M264.91,379.48s-.8-.52-.75-1.22a9.85,9.85,0,0,1,.23-1.43l-.24-.9a1.77,1.77,0,0,0,.38-.31,6,6,0,0,1,.84-.6h.81s.57-.21.75,0a8.79,8.79,0,0,1,1.47,1.79c.13.46-.07,1.89,0,2.25a8.17,8.17,0,0,1,.05,1.3,15.76,15.76,0,0,1,.45,3.67,6.59,6.59,0,0,0-.26,2.15,6.5,6.5,0,0,1,.29,1.5c0,.26.5,3.76,0,4.56s-1.28,2-1.28,2,.34,3.62.24,4.22a7,7,0,0,1,.57,2c.05.9.1,3,.1,3a1.23,1.23,0,0,1,.59.47s.55-.05.63.36a1.24,1.24,0,0,1-.18,1,7.66,7.66,0,0,0-.63,1.11c-.07.29-.1.89-.54,1.12s-.85.54-1.14.46-.72-.23-.54-.49c0,0-1.56.16-1.82-.33s-.36-.52,0-.68.85-.08,1.14-.41,0-1,.39-1.06.42.18.5,0a9.9,9.9,0,0,0,.12-1.25,14,14,0,0,0-3.16-4.45,2.73,2.73,0,0,1-.62-2.49,30.68,30.68,0,0,1,1.5-4.06V391.7l-.93,1.22-.65-.63.57-.79-.18-.22.26-1.45.62-2.22-.49-3a2.68,2.68,0,0,1,0-1.24,13,13,0,0,0,.86-2.15Z"/><path id="Figure_3" data-name="Figure 3" class="cls-4" d="M278.24,391.85a11.22,11.22,0,0,0-.84-1.4c-.47-.66-.93-1.5-.93-3.74s-.56-3.37.88-3.65a7.38,7.38,0,0,1,3.79,0c.84.38,1.12,3.09,1.12,3.09s-.46,2.8,0,3.74a7.55,7.55,0,0,0,1.87,2s3.46,1.59,3.74,2.71,1.89,5,1.7,5.94l-.18.21.77,2.15.73,1.64a7.73,7.73,0,0,1,1,1.47c.35.72,2.32,5.19,2.32,5.19l1.73,1.42.82,1.85-.36,1.94-1.12-1.05-.89.47-1-2.11-.64-1.87a49.6,49.6,0,0,1-3.9-5.7,17.68,17.68,0,0,0-1.21-2.08s0,6.19-.14,7,.28,1.54-.1,2.5a33,33,0,0,1-2.17,3.63l.58,2.33-10.62,0,2.65-7.48a18.23,18.23,0,0,1-.23-4.35c.14-2.62.37-4.44-.1-6a22.16,22.16,0,0,1-1.21-5,4,4,0,0,1,.61-2.19A4.86,4.86,0,0,1,278.24,391.85Z"/></g><g id="Building"><g id="Colored_Windows" data-name="Colored Windows"><path class="cls-6" d="M126.34,345.38s2.92.59,3.5,1.75,3.26,9.29,3,10-1.43,1.46-2.34,2.27A106.23,106.23,0,0,0,126.34,345.38Z"/><path class="cls-6" d="M130.12,346.89s5,10.48,4.82,10.81a3.35,3.35,0,0,1-1.75-.24C133,356.61,130.12,346.89,130.12,346.89Z"/><path class="cls-6" d="M135,358.22s-1.29-.85-1.45-.29,1.6,8.45,1.6,8.45S135.39,359.11,135,358.22Z"/><path class="cls-6" d="M132.83,358.17s-2.52.8-2.71,1.56,2.6,11.14,3,10.71,1.88-2.12,1.85-2.88S133.66,358.23,132.83,358.17Z"/><path class="cls-6" d="M133.19,371s1.85,7.3,2,7,0-10,0-10S133.28,370,133.19,371Z"/><path class="cls-6" d="M132.83,371s-2.46,3.2-2.36,3.76,2.41,8.74,2.72,8.5a24.21,24.21,0,0,0,1.76-5.09C134.85,377.9,133.2,371.28,132.83,371Z"/><path class="cls-6" d="M130.12,359.73s-4.25,2.22-4.19,2.83,3.86,12.18,4.18,11.85,3.28-3.53,3-4S130.12,359.73,130.12,359.73Z"/><path class="cls-6" d="M126.15,380.45s.34.23,1-.52,3-4.77,3-4.77,3.11,7.88,2.86,8.54-1.81,5.38-2.1,5.36-.76.26-1.1-.4S126.59,380.73,126.15,380.45Z"/><path class="cls-6" d="M130.75,389.56s1.88-6.14,2.22-5.86a24,24,0,0,1,2.22,4.68c.16.75-.76,6.22-1.38,6.55S132.38,394.13,130.75,389.56Z"/><polygon class="cls-6" points="133.31 383.69 135.19 378.04 135.19 387.67 133.31 383.69"/><path class="cls-6" d="M.52,261.28s38.86,17.27,45.53,22.65S83.9,318.06,83.9,318.06s-30.61-2.7-34.56-4.68-8.26-3.11-12.2-6.51S.52,275.15.52,275.15Z"/><path class="cls-6" d="M.52,305.17s37.56,4.81,43,7.93,41.31,33.13,41.31,33.13-31.92,4.25-35.3,3.4-14.27-4-15.77-5.1S.52,323.29.52,323.29Z"/><path class="cls-6" d="M.52,354.73s32.86-5.44,36.24-5,8.26,0,12.58,2.48S83.9,374.83,83.9,374.83,48.4,387.29,46.15,387s-10.14-.85-12.58-1.7S.52,371,.52,371Z"/><path class="cls-6" d="M46.05,283.93s44,24.07,61.32,41.91c0,0-16-3.68-18.22-5.1S50,286.48,46.05,283.93Z"/><path class="cls-6" d="M46.71,314s34.27,4.39,36.15,5.52a42.46,42.46,0,0,1,6.39,4.25c1.69,1.55,19.34,21.24,19.34,21.24s-17.18,2.54-19.34,2.12a13.43,13.43,0,0,1-6.59-2.66C80.49,342.61,46.71,314,46.71,314Z"/><path class="cls-6" d="M47.18,388.42S80.33,376,82.58,376.25s5.54.14,7.42,1S108.59,389,108.59,389s-16.81,11.33-19,11.75-5.35,1.7-8,.85S47.18,388.42,47.18,388.42Z"/><path class="cls-6" d="M50.19,351.19s31,20.67,32.86,21.23,3.94,2,6.29,1.42,19.25-6.51,19.25-6.51-18.4-16.82-20.28-17.62-4.23-1.92-5.17-1.92S50.19,351.19,50.19,351.19Z"/><path class="cls-6" d="M88,375.26s19.15-7,20.56-6.9,2.16-.47,3.54.45,12.52,11.33,12.52,11.33-10.61,7.65-11.84,7.72-3.8.49-4.83,0S88,375.26,88,375.26Z"/><path class="cls-6" d="M88.82,348.42s17.61-2.69,19.11-2.33a10.75,10.75,0,0,1,4,1.7c1.18.85,12.73,14.44,12.73,14.44s-11.08,5-12.92,4.39-2.81-.14-4.36-1.35S88.82,348.42,88.82,348.42Z"/><path class="cls-6" d="M111.5,346.58s11.78-2.12,12.58-1.77,1.69.22,2.16,1.25,4.08,12.73,3.57,13.2c-.78.7-2.92,2.68-4.18,2.83C124.65,361.24,111.5,346.58,111.5,346.58Z"/><path class="cls-6" d="M110.23,327.45s14.7,9,15.54,9.93,3.54,7.2,3.5,8,.4,1.49-.54,1a6.66,6.66,0,0,1-2.39-1.6A4.83,4.83,0,0,0,125,343.4c-.52-.36-.28.14-1.08-.78S110.23,327.45,110.23,327.45Z"/><path class="cls-6" d="M112,367.61s12.08-5.19,12.83-4.81.94.33,1.13.75,4.18,10.86,3.82,11.66-2.19,4.25-2.88,4.34-1.85.24-2.38-.28S112,367.61,112,367.61Z"/><path class="cls-6" d="M88.82,322s18.17,3.83,19.77,5,16.06,17.37,16.06,17.37-13.22,1.73-14.31,1.1S88.82,322,88.82,322Z"/><polygon class="cls-6" points="37.74 347.9 0.51 325.07 0.34 352.98 37.74 347.9"/><polygon class="cls-6" points="40.19 310.51 0.38 277.07 0.52 302.88 40.19 310.51"/><polygon class="cls-6" points="39.69 279.14 0.38 259.63 0.52 251.61 39.69 279.14"/></g><polygon id="Outline" class="cls-2" points="26.43 244.79 51.09 267.22 55.54 265.81 62.05 271.19 62.05 280.25 59.3 278.55 58.92 285.91 108.5 324.99 125.96 336.88 135.35 357.84 135.35 394.65 0.52 419.01 0.52 244.79 26.43 244.79"/><path class="cls-2" d="M83.05,404.39l0,0L46,391.06l-13.49-1.72L.33,377.87v-7.22L35.64,385.5l8.3.6,38.17,15.33,8.17-1.23L108,388.82l5.14-1.49v3.81l-5.69.54-17,11.38Zm-82.34-27,31.87,11.36,13.49,1.72,37,13.31,7.21-1.3,17-11.39,5.4-.52V388l-4.67,1.36L90.38,400.75h0L82.08,402,43.87,386.65l-8.31-.59L.71,371.4Z"/><g id="entrance"><path class="cls-2" d="M28.93,414.28l-13.86-5.53V382.54l13.86,4.94Zm-13.48-6,13.1,5.23V387.93l-13.1-4.67Z"/><path class="cls-2" d="M28.55,414.23V387.35l4.17,1.49v24.64Zm.38-26.17v25.53l3.42-.62V389.28Z"/><path class="cls-2" d="M6.09,402.87H4V378.59l2.1.75Zm-1.72-.57H5.72V379.79l-1.35-.48Z"/><path class="cls-2" d="M1.64,408H.33V377.28l4,1.44v25.66H3.05v1.88H1.64Zm-.93-.56h.56v-1.7H2.68v-1.88H4V379.17L.71,378Z"/><path class="cls-2" d="M20.88,415.61l-11-5.52H.33v-2.7l15,.87L29.74,414ZM.71,409.52l9.25,0,11,5.5,6.82-1.24-12.51-5L.71,408Z"/><path class="cls-2" d="M40.38,410h-8v-7.89l2.81-.08v1.26h1l0,1.09,1,.09v1.3h1l0,1h1v1.15h1.3Zm-7.66-.57H40v-.92H38.71v-1.15h-1l0-1h-.95V405l-1-.09,0-1.07h-1v-1.25l-2.07.06Z"/><path class="cls-2" d="M15.45,408.82h-.2l-14-.86V405.7H2.68v-1.88H4v-1.53l11.46.35ZM1.64,407.41l13.43.82v-5l-10.7-.32v1.51H3.05v1.88H1.64Z"/><path class="cls-2" d="M32.54,401.8h-.19V388.75l13.72,1.75,24.26,9.82L49.91,401.8Zm.18-.57H49.91l18-1.3L46,391.06l-13.28-1.69Z"/><path class="cls-2" d="M32.35,413.54v-4.16h7.84L80.79,403l3.33,1.2Zm.37-3.59v3L82,404l-1.23-.45-40.55,6.38Z"/></g><g id="Right_entrance" data-name="Right entrance"><path class="cls-2" d="M101.27,400.08H99v-3.37l2.32-1.55Zm-1.94-.57h1.57V396l-1.57,1.05Z"/><path class="cls-2" d="M93.93,400.42l5.4-4v3.62Zm5-3.07-3.24,2.39,3.24-.21Z"/><path class="cls-2" d="M100.9,397.4v-2l4.55-3v4.8Zm.37-1.62v1l3.8-.2v-3.38Z"/><path class="cls-2" d="M106.15,397.19v-5l1.16-1.11,5.79-.55v6.2Zm.37-4.65v4.06l6.2-.37v-5.06l-5.29.51Z"/><path class="cls-2" d="M106.52,397.18h-1.45v-4.59l1.45-.57Zm-1.07-.56h.7v-3.87l-.7.28Z"/><path class="cls-2" d="M106.15,400.08H100.9v-3.25l11.82-.6v-8.41l.91-.05v8.08l.5-.19v-8.44l1.19-1.07v9.09l3.1-1.09V384.4l1.12-1v12.47l-11.66,4.08Zm-4.88-.57h4.87l1.69-.17,11.33-4v-11l-.37.34v9.89L115,396v-8.81l-.45.4v8.55l-1.25.47v-8.21h-.15v8.4l-11.83.61Z"/><path class="cls-2" d="M127.6,396.11l-8.44-.23v-12.2l4.45-3.11.08.22c.74,1.79,2.74,6.57,3.1,7.1a1.91,1.91,0,0,0,.67.44l.14.05Zm-8.06-.79,7.69.21v-6.72a1.82,1.82,0,0,1-.7-.51c-.43-.63-2.55-5.75-3.07-7L119.54,384Z"/><path class="cls-2" d="M127.23,396.12v-7.27a1.11,1.11,0,0,1-.71-.58c-.27-.49-3-6.91-3.14-7.18l-.12-.27,1.1-.79,1.89.14,3.71,8.42v.1a24.67,24.67,0,0,0,0,4,3.2,3.2,0,0,0,.29.89,1.74,1.74,0,0,1,.18.67c0,.51,0,1.28,0,1.31v.26Zm-3.42-15.07c1,2.37,2.81,6.5,3,6.87a.81.81,0,0,0,.61.4h.18v7.2l2.45-.21c0-.27,0-.69,0-1a.79.79,0,0,0-.11-.38,4.48,4.48,0,0,1-.34-1.05,25.1,25.1,0,0,1,0-4.16l-3.54-8-1.61-.11Z"/><path class="cls-2" d="M130,395.91v-1.53a7,7,0,0,1-.45-1.53c-.07-.6,0-3.83,0-4.2l0-.79,3.72,7.31Zm-.09-6.44c0,1.19,0,2.92,0,3.29a5.36,5.36,0,0,0,.43,1.38l0,.07v1l2.22-.5Z"/><path class="cls-2" d="M125.16,394.93h-4l.1-12.82h3l.76,2.45Zm-3.61-.57h3.23l-.11-9.73-.63-2h-2.4Z"/></g><g id="Top_of_building" data-name="Top of building"><polygon class="cls-2" points="59.45 275.72 55.83 272.72 51.01 274.83 15.07 244.79 26.43 244.79 51.09 267.22 55.54 265.81 62.05 271.19 62.05 280.25 59.3 278.55 59.45 275.72"/><polygon class="cls-2" points="45.27 279.87 53.77 277.13 55.43 276.72 59.18 279.68 59.45 275.72 55.83 272.72 44.46 277.13 44.46 279.12 45.27 279.87"/><polygon class="cls-2" points="48.08 283.93 93.26 313.49 58.92 285.91 59.18 279.68 55.43 276.72 45.27 279.87 44.46 279.12 44.84 269.68 38.08 264.02 37.79 274.28 35.91 272.72 36.28 262.52 29.77 257.07 29.77 267.65 27.31 265.88 27.49 255.17 19.98 248.89 19.98 260 17.12 257.54 17.29 246.64 15.07 244.79 0.52 244.79 0.99 250.09 48.08 283.93"/></g></g><g id="Text"><polygon class="cls-8" points="24.31 418.97 139.93 396.25 139.93 0.66 177.56 1.12 177.56 396.25 265.09 419.48 24.31 418.97"/><path class="cls-4" d="M10.59,92.47V72.91H25.1v3.31H14.54v4.34h9.82v3.29H14.54v5.33H25.47v3.29Z"/><path class="cls-4" d="M28.87,92.47V72.91h3.95V81.6l8-8.69h5.32l-7.37,7.62,7.77,11.94H41.4L36,83.29l-3.21,3.27v5.91Z"/><path class="cls-4" d="M48.61,92.47V72.91h4V81.6l8-8.69h5.31l-7.36,7.62,7.76,11.94H61.14l-5.38-9.18-3.2,3.27v5.91Z"/><path class="cls-4" d="M85.94,92.47h-4.3L79.93,88H72.11L70.5,92.47H66.31l7.62-19.56H78.1Zm-7.27-7.74L76,77.47l-2.64,7.26Z"/><path class="cls-4" d="M88,92.47V72.91h5.91l3.55,13.35L101,72.91h5.93V92.47h-3.67V77.07l-3.89,15.4h-3.8l-3.87-15.4v15.4Z"/><path class="cls-4" d="M128.44,92.47h-4.29L122.44,88h-7.82L113,92.47h-4.19l7.62-19.56h4.18Zm-7.27-7.74-2.69-7.26-2.65,7.26Z"/><path class="cls-4" d="M130.42,92.47V72.91h4V92.47Z"/><path class="cls-4" d="M53.46,118.08l3.83,1.21a8.6,8.6,0,0,1-2.93,4.76,8.35,8.35,0,0,1-5.2,1.56,8.42,8.42,0,0,1-6.41-2.67,10.19,10.19,0,0,1-2.51-7.28q0-4.87,2.53-7.58a8.65,8.65,0,0,1,6.63-2.71,8.11,8.11,0,0,1,5.83,2.13,7.61,7.61,0,0,1,2,3.6l-3.91.93a4,4,0,0,0-4.12-3.28,4.45,4.45,0,0,0-3.53,1.56c-.9,1-1.36,2.73-1.36,5.06s.45,4.23,1.34,5.28a4.3,4.3,0,0,0,3.47,1.58,4,4,0,0,0,2.71-1A5.88,5.88,0,0,0,53.46,118.08Z"/><path class="cls-4" d="M60.69,125.27V105.71H69a14,14,0,0,1,4.56.53,4.47,4.47,0,0,1,2.28,1.87,5.64,5.64,0,0,1,.85,3.08,5.24,5.24,0,0,1-1.29,3.64,6.24,6.24,0,0,1-3.87,1.81,9.29,9.29,0,0,1,2.11,1.64,21.54,21.54,0,0,1,2.25,3.18l2.39,3.81H73.55L70.7,121a28.93,28.93,0,0,0-2.08-2.88,2.94,2.94,0,0,0-1.19-.81,6.36,6.36,0,0,0-2-.23h-.8v8.17Zm4-11.29h2.92a15.07,15.07,0,0,0,3.55-.24,2.11,2.11,0,0,0,1.11-.83,2.51,2.51,0,0,0,.4-1.46,2.37,2.37,0,0,0-.53-1.6,2.44,2.44,0,0,0-1.49-.77q-.48-.06-2.88-.06H64.64Z"/><path class="cls-4" d="M79.61,115.61a12.38,12.38,0,0,1,.9-5,9.15,9.15,0,0,1,1.82-2.68,7.57,7.57,0,0,1,2.53-1.76,10.66,10.66,0,0,1,4.22-.78A9.17,9.17,0,0,1,96,108.06c1.74,1.79,2.6,4.27,2.6,7.46A10.22,10.22,0,0,1,96,122.93a10.26,10.26,0,0,1-13.82,0A10.08,10.08,0,0,1,79.61,115.61Zm4.07-.13a7.28,7.28,0,0,0,1.54,5,5.27,5.27,0,0,0,7.77,0,7.5,7.5,0,0,0,1.52-5.11,7.3,7.3,0,0,0-1.48-5,5.45,5.45,0,0,0-7.85,0A7.36,7.36,0,0,0,83.68,115.48Z"/><path class="cls-4" d="M100.67,118.91l3.85-.38a4.75,4.75,0,0,0,1.4,2.85,4.29,4.29,0,0,0,2.87.9,4.42,4.42,0,0,0,2.87-.8,2.4,2.4,0,0,0,1-1.89,1.78,1.78,0,0,0-.41-1.18,3.17,3.17,0,0,0-1.42-.85c-.46-.16-1.52-.45-3.16-.86a10.77,10.77,0,0,1-4.46-1.93,5.1,5.1,0,0,1-1.8-3.94,5,5,0,0,1,.85-2.79,5.25,5.25,0,0,1,2.44-2,9.67,9.67,0,0,1,3.85-.69,8.22,8.22,0,0,1,5.54,1.62,5.67,5.67,0,0,1,2,4.31l-4,.17A3.38,3.38,0,0,0,111,109.3a4,4,0,0,0-2.5-.66,4.53,4.53,0,0,0-2.7.71,1.44,1.44,0,0,0-.62,1.22,1.49,1.49,0,0,0,.58,1.18,10.29,10.29,0,0,0,3.63,1.31,19.29,19.29,0,0,1,4.27,1.41,5.47,5.47,0,0,1,2.16,2,6.16,6.16,0,0,1-.15,6.26,5.68,5.68,0,0,1-2.65,2.19,11.16,11.16,0,0,1-4.25.71,8.42,8.42,0,0,1-5.7-1.72A7.42,7.42,0,0,1,100.67,118.91Z"/><path class="cls-4" d="M118.9,118.91l3.85-.38a4.75,4.75,0,0,0,1.4,2.85,4.29,4.29,0,0,0,2.87.9,4.42,4.42,0,0,0,2.87-.8,2.4,2.4,0,0,0,1-1.89,1.78,1.78,0,0,0-.41-1.18,3.17,3.17,0,0,0-1.42-.85c-.46-.16-1.52-.45-3.16-.86a10.77,10.77,0,0,1-4.46-1.93,5.1,5.1,0,0,1-1.8-3.94,5,5,0,0,1,.85-2.79,5.25,5.25,0,0,1,2.44-2,9.67,9.67,0,0,1,3.85-.69,8.22,8.22,0,0,1,5.54,1.62,5.67,5.67,0,0,1,2,4.31l-3.95.17a3.38,3.38,0,0,0-1.09-2.17,4,4,0,0,0-2.5-.66,4.53,4.53,0,0,0-2.7.71,1.44,1.44,0,0,0-.62,1.22,1.49,1.49,0,0,0,.58,1.18,10.29,10.29,0,0,0,3.63,1.31,19.29,19.29,0,0,1,4.27,1.41,5.47,5.47,0,0,1,2.16,2,6.16,6.16,0,0,1-.15,6.26,5.68,5.68,0,0,1-2.65,2.19,11.16,11.16,0,0,1-4.25.71,8.42,8.42,0,0,1-5.7-1.72A7.42,7.42,0,0,1,118.9,118.91Z"/><text class="cls-9" transform="translate(147.91 106.11) rotate(90)">SECTION</text></g></svg>